<?xml version="1.0" encoding="UTF-8"?>
<!DOCTYPE svg
PUBLIC "-//W3C//DTD SVG 1.1//EN"
       "http://www.w3.org/Graphics/SVG/1.1/DTD/svg11.dtd">
<svg viewBox="36 -8 1795 1157" width="1759px" height="1165px" xmlns="http://www.w3.org/2000/svg" version="1.1">
   <line x1="789" y1="264" x2="779" y2="264" style="stroke:#bbb;stroke-width:1;"/>
   <line x1="615" y1="340" x2="605" y2="340" style="stroke:#bbb;stroke-width:1;"/>
   <line x1="779" y1="264" x2="615" y2="340" style="stroke:#bbb;stroke-width:1;"/>
   <line x1="781.5" y1="264" x2="785.03553390593" y2="267.53553390593" style="stroke:#bbb;stroke-width:2;"/>
   <line x1="781.5" y1="264" x2="785.03553390593" y2="260.46446609407" style="stroke:#bbb;stroke-width:2;"/>
   <line x1="610" y1="340" x2="613.53553390593" y2="343.53553390593" style="stroke:#bbb;stroke-width:2;"/>
   <line x1="610" y1="340" x2="613.53553390593" y2="336.46446609407" style="stroke:#bbb;stroke-width:2;"/>
   <line x1="792" y1="57" x2="782" y2="57" style="stroke:#c00;stroke-width:1;"/>
   <line x1="658" y1="54" x2="648" y2="54" style="stroke:#c00;stroke-width:1;"/>
   <line x1="782" y1="57" x2="658" y2="54" style="stroke:#c00;stroke-width:1;"/>
   <line x1="784.5" y1="57" x2="788.03553390593" y2="60.535533905933" style="stroke:#c00;stroke-width:2;"/>
   <line x1="784.5" y1="57" x2="788.03553390593" y2="53.464466094067" style="stroke:#c00;stroke-width:2;"/>
   <line x1="653" y1="54" x2="656.53553390593" y2="57.535533905933" style="stroke:#c00;stroke-width:2;"/>
   <line x1="653" y1="54" x2="656.53553390593" y2="50.464466094067" style="stroke:#c00;stroke-width:2;"/>
   <line x1="785" y1="538" x2="775" y2="538" style="stroke:#cb0;stroke-width:1;"/>
   <line x1="615" y1="340" x2="605" y2="340" style="stroke:#cb0;stroke-width:1;"/>
   <line x1="775" y1="538" x2="615" y2="340" style="stroke:#cb0;stroke-width:1;"/>
   <line x1="777.5" y1="538" x2="781.03553390593" y2="541.53553390593" style="stroke:#cb0;stroke-width:2;"/>
   <line x1="777.5" y1="538" x2="781.03553390593" y2="534.46446609407" style="stroke:#cb0;stroke-width:2;"/>
   <line x1="610" y1="340" x2="613.53553390593" y2="343.53553390593" style="stroke:#cb0;stroke-width:2;"/>
   <line x1="610" y1="340" x2="613.53553390593" y2="336.46446609407" style="stroke:#cb0;stroke-width:2;"/>
   <line x1="1125" y1="79" x2="1115" y2="79" style="stroke:#c00;stroke-width:1;"/>
   <line x1="1110" y1="416" x2="1120" y2="416" style="stroke:#c00;stroke-width:1;"/>
   <line x1="1115" y1="79" x2="1110" y2="416" style="stroke:#c00;stroke-width:1;"/>
   <line x1="1117.5" y1="79" x2="1121.0355339059" y2="82.535533905933" style="stroke:#c00;stroke-width:2;"/>
   <line x1="1117.5" y1="79" x2="1121.0355339059" y2="75.464466094067" style="stroke:#c00;stroke-width:2;"/>
   <line x1="1115" y1="416" x2="1111.4644660941" y2="419.53553390593" style="stroke:#c00;stroke-width:2;"/>
   <line x1="1115" y1="416" x2="1111.4644660941" y2="412.46446609407" style="stroke:#c00;stroke-width:2;"/>
   <line x1="1125" y1="59" x2="1115" y2="59" style="stroke:#c00;stroke-width:1;"/>
   <line x1="948" y1="37" x2="938" y2="37" style="stroke:#c00;stroke-width:1;"/>
   <line x1="1115" y1="59" x2="948" y2="37" style="stroke:#c00;stroke-width:1;"/>
   <line x1="1117.5" y1="59" x2="1121.0355339059" y2="62.535533905933" style="stroke:#c00;stroke-width:2;"/>
   <line x1="1117.5" y1="59" x2="1121.0355339059" y2="55.464466094067" style="stroke:#c00;stroke-width:2;"/>
   <line x1="943" y1="37" x2="946.53553390593" y2="40.535533905933" style="stroke:#c00;stroke-width:2;"/>
   <line x1="943" y1="37" x2="946.53553390593" y2="33.464466094067" style="stroke:#c00;stroke-width:2;"/>
   <line x1="419" y1="767" x2="409" y2="767" style="stroke:#0b0;stroke-width:1;"/>
   <line x1="410" y1="340" x2="420" y2="340" style="stroke:#0b0;stroke-width:1;"/>
   <line x1="409" y1="767" x2="410" y2="340" style="stroke:#0b0;stroke-width:1;"/>
   <line x1="411.5" y1="767" x2="415.03553390593" y2="770.53553390593" style="stroke:#0b0;stroke-width:2;"/>
   <line x1="411.5" y1="767" x2="415.03553390593" y2="763.46446609407" style="stroke:#0b0;stroke-width:2;"/>
   <line x1="415" y1="340" x2="411.46446609407" y2="343.53553390593" style="stroke:#0b0;stroke-width:2;"/>
   <line x1="415" y1="340" x2="411.46446609407" y2="336.46446609407" style="stroke:#0b0;stroke-width:2;"/>
   <line x1="419" y1="927" x2="409" y2="927" style="stroke:#b0b;stroke-width:1;"/>
   <line x1="410" y1="340" x2="420" y2="340" style="stroke:#b0b;stroke-width:1;"/>
   <line x1="409" y1="927" x2="410" y2="340" style="stroke:#b0b;stroke-width:1;"/>
   <line x1="411.5" y1="927" x2="415.03553390593" y2="930.53553390593" style="stroke:#b0b;stroke-width:2;"/>
   <line x1="411.5" y1="927" x2="415.03553390593" y2="923.46446609407" style="stroke:#b0b;stroke-width:2;"/>
   <line x1="415" y1="340" x2="411.46446609407" y2="343.53553390593" style="stroke:#b0b;stroke-width:2;"/>
   <line x1="415" y1="340" x2="411.46446609407" y2="336.46446609407" style="stroke:#b0b;stroke-width:2;"/>
   <line x1="419" y1="947" x2="409" y2="947" style="stroke:#cb0;stroke-width:1;"/>
   <line x1="410" y1="340" x2="420" y2="340" style="stroke:#cb0;stroke-width:1;"/>
   <line x1="409" y1="947" x2="410" y2="340" style="stroke:#cb0;stroke-width:1;"/>
   <line x1="411.5" y1="947" x2="415.03553390593" y2="950.53553390593" style="stroke:#cb0;stroke-width:2;"/>
   <line x1="411.5" y1="947" x2="415.03553390593" y2="943.46446609407" style="stroke:#cb0;stroke-width:2;"/>
   <line x1="415" y1="340" x2="411.46446609407" y2="343.53553390593" style="stroke:#cb0;stroke-width:2;"/>
   <line x1="415" y1="340" x2="411.46446609407" y2="336.46446609407" style="stroke:#cb0;stroke-width:2;"/>
   <line x1="419" y1="967" x2="409" y2="967" style="stroke:#bbb;stroke-width:1;"/>
   <line x1="410" y1="340" x2="420" y2="340" style="stroke:#bbb;stroke-width:1;"/>
   <line x1="409" y1="967" x2="410" y2="340" style="stroke:#bbb;stroke-width:1;"/>
   <line x1="411.5" y1="967" x2="415.03553390593" y2="970.53553390593" style="stroke:#bbb;stroke-width:2;"/>
   <line x1="411.5" y1="967" x2="415.03553390593" y2="963.46446609407" style="stroke:#bbb;stroke-width:2;"/>
   <line x1="415" y1="340" x2="411.46446609407" y2="343.53553390593" style="stroke:#bbb;stroke-width:2;"/>
   <line x1="415" y1="340" x2="411.46446609407" y2="336.46446609407" style="stroke:#bbb;stroke-width:2;"/>
   <rect width="192" height="20" x="789" y="214" style="fill:#007;stroke:black;"/>
   <text width="192" height="20" x="794" y="228" style="fill:#fff;" font-family="Arial" font-size="16px"> cnr</text>
   <rect width="192" height="20" x="789" y="234" style="fill:#aea;stroke:black;"/>
   <text width="192" height="20" x="794" y="248" style="fill:black;" font-family="Arial" font-size="16px">DOID</text>
   <rect width="192" height="20" x="789" y="254" style="fill:none;stroke:black;"/>
   <text width="192" height="20" x="794" y="268" style="fill:black;" font-family="Arial" font-size="16px">cnr_entreprise_id</text>
   <rect width="192" height="20" x="789" y="274" style="fill:none;stroke:black;"/>
   <text width="192" height="20" x="794" y="288" style="fill:black;" font-family="Arial" font-size="16px">cnr_qualite</text>
   <rect width="192" height="20" x="789" y="294" style="fill:none;stroke:black;"/>
   <text width="192" height="20" x="794" y="308" style="fill:black;" font-family="Arial" font-size="16px">cnr_rc_decennale</text>
   <rect width="192" height="20" x="789" y="314" style="fill:none;stroke:black;"/>
   <text width="192" height="20" x="794" y="328" style="fill:black;" font-family="Arial" font-size="16px">cnr_rc_hors_decennale</text>
   <rect width="192" height="20" x="789" y="334" style="fill:none;stroke:black;"/>
   <text width="192" height="20" x="794" y="348" style="fill:black;" font-family="Arial" font-size="16px">cnr_rc_recours</text>
   <rect width="192" height="20" x="789" y="354" style="fill:none;stroke:black;"/>
   <text width="192" height="20" x="794" y="368" style="fill:black;" font-family="Arial" font-size="16px">risques_chantier_materiel</text>
   <rect width="192" height="20" x="789" y="374" style="fill:none;stroke:black;"/>
   <text width="192" height="20" x="794" y="388" style="fill:black;" font-family="Arial" font-size="16px">risques_chantier_existants</text>
   <rect width="146" height="20" x="792" y="7" style="fill:#007;stroke:black;"/>
   <text width="146" height="20" x="797" y="21" style="fill:#fff;" font-family="Arial" font-size="16px"> dommage_ouvrage</text>
   <rect width="146" height="20" x="792" y="27" style="fill:#aea;stroke:black;"/>
   <text width="146" height="20" x="797" y="41" style="fill:black;" font-family="Arial" font-size="16px">DOID</text>
   <rect width="146" height="20" x="792" y="47" style="fill:none;stroke:black;"/>
   <text width="146" height="20" x="797" y="61" style="fill:black;" font-family="Arial" font-size="16px">souscripteur_id</text>
   <rect width="146" height="20" x="792" y="67" style="fill:none;stroke:black;"/>
   <text width="146" height="20" x="797" y="81" style="fill:black;" font-family="Arial" font-size="16px">date_creation</text>
   <rect width="146" height="20" x="792" y="87" style="fill:none;stroke:black;"/>
   <text width="146" height="20" x="797" y="101" style="fill:black;" font-family="Arial" font-size="16px">date_modification</text>
   <rect width="146" height="20" x="792" y="107" style="fill:none;stroke:black;"/>
   <text width="146" height="20" x="797" y="121" style="fill:black;" font-family="Arial" font-size="16px">date_validation</text>
   <rect width="185" height="20" x="420" y="310" style="fill:#007;stroke:black;"/>
   <text width="185" height="20" x="425" y="324" style="fill:#fff;" font-family="Arial" font-size="16px"> entreprise</text>
   <rect width="185" height="20" x="420" y="330" style="fill:#aea;stroke:black;"/>
   <text width="185" height="20" x="425" y="344" style="fill:black;" font-family="Arial" font-size="16px">entreprise_id</text>
   <rect width="185" height="20" x="420" y="350" style="fill:none;stroke:black;"/>
   <text width="185" height="20" x="425" y="364" style="fill:black;" font-family="Arial" font-size="16px">entreprise_raison_sociale</text>
   <rect width="185" height="20" x="420" y="370" style="fill:none;stroke:black;"/>
   <text width="185" height="20" x="425" y="384" style="fill:black;" font-family="Arial" font-size="16px">entreprise_nom</text>
   <rect width="185" height="20" x="420" y="390" style="fill:none;stroke:black;"/>
   <text width="185" height="20" x="425" y="404" style="fill:black;" font-family="Arial" font-size="16px">entreprise_prenom</text>
   <rect width="185" height="20" x="420" y="410" style="fill:none;stroke:black;"/>
   <text width="185" height="20" x="425" y="424" style="fill:black;" font-family="Arial" font-size="16px">entreprise_nat_juri</text>
   <rect width="185" height="20" x="420" y="430" style="fill:none;stroke:black;"/>
   <text width="185" height="20" x="425" y="444" style="fill:black;" font-family="Arial" font-size="16px">entreprise_adresse</text>
   <rect width="185" height="20" x="420" y="450" style="fill:none;stroke:black;"/>
   <text width="185" height="20" x="425" y="464" style="fill:black;" font-family="Arial" font-size="16px">entreprise_code_postal</text>
   <rect width="185" height="20" x="420" y="470" style="fill:none;stroke:black;"/>
   <text width="185" height="20" x="425" y="484" style="fill:black;" font-family="Arial" font-size="16px">entreprise_commune</text>
   <rect width="185" height="20" x="420" y="490" style="fill:none;stroke:black;"/>
   <text width="185" height="20" x="425" y="504" style="fill:black;" font-family="Arial" font-size="16px">entreprise_num_contrat</text>
   <rect width="185" height="20" x="420" y="510" style="fill:none;stroke:black;"/>
   <text width="185" height="20" x="425" y="524" style="fill:black;" font-family="Arial" font-size="16px">entreprise_numero_siret</text>
   <rect width="185" height="20" x="420" y="530" style="fill:none;stroke:black;"/>
   <text width="185" height="20" x="425" y="544" style="fill:black;" font-family="Arial" font-size="16px">entreprise_type</text>
   <rect width="274" height="20" x="1506" y="18" style="fill:#007;stroke:black;"/>
   <text width="274" height="20" x="1511" y="32" style="fill:#fff;" font-family="Arial" font-size="16px"> moa</text>
   <rect width="274" height="20" x="1506" y="38" style="fill:#aea;stroke:black;"/>
   <text width="274" height="20" x="1511" y="52" style="fill:black;" font-family="Arial" font-size="16px">DOID</text>
   <rect width="274" height="20" x="1506" y="58" style="fill:none;stroke:black;"/>
   <text width="274" height="20" x="1511" y="72" style="fill:black;" font-family="Arial" font-size="16px">moa_souscripteur</text>
   <rect width="274" height="20" x="1506" y="78" style="fill:none;stroke:black;"/>
   <text width="274" height="20" x="1511" y="92" style="fill:black;" font-family="Arial" font-size="16px">moa_souscripteur_form_civilite</text>
   <rect width="274" height="20" x="1506" y="98" style="fill:none;stroke:black;"/>
   <text width="274" height="20" x="1511" y="112" style="fill:black;" font-family="Arial" font-size="16px">moa_souscripteur_form_nom_prenom</text>
   <rect width="274" height="20" x="1506" y="118" style="fill:none;stroke:black;"/>
   <text width="274" height="20" x="1511" y="132" style="fill:black;" font-family="Arial" font-size="16px">moa_souscripteur_form_adresse</text>
   <rect width="274" height="20" x="1506" y="138" style="fill:none;stroke:black;"/>
   <text width="274" height="20" x="1511" y="152" style="fill:black;" font-family="Arial" font-size="16px">moa_souscripteur_form_raison_sociale</text>
   <rect width="274" height="20" x="1506" y="158" style="fill:none;stroke:black;"/>
   <text width="274" height="20" x="1511" y="172" style="fill:black;" font-family="Arial" font-size="16px">moa_souscripteur_form_siret</text>
   <rect width="274" height="20" x="1506" y="178" style="fill:none;stroke:black;"/>
   <text width="274" height="20" x="1511" y="192" style="fill:black;" font-family="Arial" font-size="16px">moa_qualite</text>
   <rect width="274" height="20" x="1506" y="198" style="fill:none;stroke:black;"/>
   <text width="274" height="20" x="1511" y="212" style="fill:black;" font-family="Arial" font-size="16px">moa_qualite_champ</text>
   <rect width="274" height="20" x="1506" y="218" style="fill:none;stroke:black;"/>
   <text width="274" height="20" x="1511" y="232" style="fill:black;" font-family="Arial" font-size="16px">moa_construction</text>
   <rect width="274" height="20" x="1506" y="238" style="fill:none;stroke:black;"/>
   <text width="274" height="20" x="1511" y="252" style="fill:black;" font-family="Arial" font-size="16px">moa_construction_pro</text>
   <rect width="274" height="20" x="1506" y="258" style="fill:none;stroke:black;"/>
   <text width="274" height="20" x="1511" y="272" style="fill:black;" font-family="Arial" font-size="16px">moa_construction_pro_champ</text>
   <rect width="274" height="20" x="1506" y="278" style="fill:none;stroke:black;"/>
   <text width="274" height="20" x="1511" y="292" style="fill:black;" font-family="Arial" font-size="16px">moa_tab_conception</text>
   <rect width="274" height="20" x="1506" y="298" style="fill:none;stroke:black;"/>
   <text width="274" height="20" x="1511" y="312" style="fill:black;" font-family="Arial" font-size="16px">moa_tab_conception_1</text>
   <rect width="274" height="20" x="1506" y="318" style="fill:none;stroke:black;"/>
   <text width="274" height="20" x="1511" y="332" style="fill:black;" font-family="Arial" font-size="16px">moa_tab_conception_2</text>
   <rect width="274" height="20" x="1506" y="338" style="fill:none;stroke:black;"/>
   <text width="274" height="20" x="1511" y="352" style="fill:black;" font-family="Arial" font-size="16px">moa_tab_conception_3</text>
   <rect width="274" height="20" x="1506" y="358" style="fill:none;stroke:black;"/>
   <text width="274" height="20" x="1511" y="372" style="fill:black;" font-family="Arial" font-size="16px">moa_tab_conception_4</text>
   <rect width="274" height="20" x="1506" y="378" style="fill:none;stroke:black;"/>
   <text width="274" height="20" x="1511" y="392" style="fill:black;" font-family="Arial" font-size="16px">moa_direction</text>
   <rect width="274" height="20" x="1506" y="398" style="fill:none;stroke:black;"/>
   <text width="274" height="20" x="1511" y="412" style="fill:black;" font-family="Arial" font-size="16px">moa_direction_1</text>
   <rect width="274" height="20" x="1506" y="418" style="fill:none;stroke:black;"/>
   <text width="274" height="20" x="1511" y="432" style="fill:black;" font-family="Arial" font-size="16px">moa_direction_2</text>
   <rect width="274" height="20" x="1506" y="438" style="fill:none;stroke:black;"/>
   <text width="274" height="20" x="1511" y="452" style="fill:black;" font-family="Arial" font-size="16px">moa_direction_3</text>
   <rect width="274" height="20" x="1506" y="458" style="fill:none;stroke:black;"/>
   <text width="274" height="20" x="1511" y="472" style="fill:black;" font-family="Arial" font-size="16px">moa_direction_4</text>
   <rect width="274" height="20" x="1506" y="478" style="fill:none;stroke:black;"/>
   <text width="274" height="20" x="1511" y="492" style="fill:black;" font-family="Arial" font-size="16px">moa_surveillance</text>
   <rect width="274" height="20" x="1506" y="498" style="fill:none;stroke:black;"/>
   <text width="274" height="20" x="1511" y="512" style="fill:black;" font-family="Arial" font-size="16px">moa_surveillance_1</text>
   <rect width="274" height="20" x="1506" y="518" style="fill:none;stroke:black;"/>
   <text width="274" height="20" x="1511" y="532" style="fill:black;" font-family="Arial" font-size="16px">moa_surveillance_2</text>
   <rect width="274" height="20" x="1506" y="538" style="fill:none;stroke:black;"/>
   <text width="274" height="20" x="1511" y="552" style="fill:black;" font-family="Arial" font-size="16px">moa_surveillance_3</text>
   <rect width="274" height="20" x="1506" y="558" style="fill:none;stroke:black;"/>
   <text width="274" height="20" x="1511" y="572" style="fill:black;" font-family="Arial" font-size="16px">moa_surveillance_4</text>
   <rect width="274" height="20" x="1506" y="578" style="fill:none;stroke:black;"/>
   <text width="274" height="20" x="1511" y="592" style="fill:black;" font-family="Arial" font-size="16px">moa_execution</text>
   <rect width="274" height="20" x="1506" y="598" style="fill:none;stroke:black;"/>
   <text width="274" height="20" x="1511" y="612" style="fill:black;" font-family="Arial" font-size="16px">moa_execution_1</text>
   <rect width="274" height="20" x="1506" y="618" style="fill:none;stroke:black;"/>
   <text width="274" height="20" x="1511" y="632" style="fill:black;" font-family="Arial" font-size="16px">moa_execution_2</text>
   <rect width="274" height="20" x="1506" y="638" style="fill:none;stroke:black;"/>
   <text width="274" height="20" x="1511" y="652" style="fill:black;" font-family="Arial" font-size="16px">moa_execution_3</text>
   <rect width="274" height="20" x="1506" y="658" style="fill:none;stroke:black;"/>
   <text width="274" height="20" x="1511" y="672" style="fill:black;" font-family="Arial" font-size="16px">moa_execution_4</text>
   <rect width="368" height="20" x="785" y="468" style="fill:#007;stroke:black;"/>
   <text width="368" height="20" x="790" y="482" style="fill:#fff;" font-family="Arial" font-size="16px"> moe</text>
   <rect width="368" height="20" x="785" y="488" style="fill:#aea;stroke:black;"/>
   <text width="368" height="20" x="790" y="502" style="fill:black;" font-family="Arial" font-size="16px">DOID</text>
   <rect width="368" height="20" x="785" y="508" style="fill:none;stroke:black;"/>
   <text width="368" height="20" x="790" y="522" style="fill:black;" font-family="Arial" font-size="16px">moe_intervention</text>
   <rect width="368" height="20" x="785" y="528" style="fill:none;stroke:black;"/>
   <text width="368" height="20" x="790" y="542" style="fill:black;" font-family="Arial" font-size="16px">moe_entreprise_id</text>
   <rect width="368" height="20" x="785" y="548" style="fill:none;stroke:black;"/>
   <text width="368" height="20" x="790" y="562" style="fill:black;" font-family="Arial" font-size="16px">moe_intervention_independant</text>
   <rect width="368" height="20" x="785" y="568" style="fill:none;stroke:black;"/>
   <text width="368" height="20" x="790" y="582" style="fill:black;" font-family="Arial" font-size="16px">moe_intervention_independant_qualite</text>
   <rect width="368" height="20" x="785" y="588" style="fill:none;stroke:black;"/>
   <text width="368" height="20" x="790" y="602" style="fill:black;" font-family="Arial" font-size="16px">moe_intervention_independant_mission</text>
   <rect width="368" height="20" x="785" y="608" style="fill:none;stroke:black;"/>
   <text width="368" height="20" x="790" y="622" style="fill:black;" font-family="Arial" font-size="16px">moe_intervention_independant_mission_autre_descr</text>
   <rect width="309" height="20" x="51" y="24" style="fill:#007;stroke:black;"/>
   <text width="309" height="20" x="56" y="38" style="fill:#fff;" font-family="Arial" font-size="16px"> operation_construction</text>
   <rect width="309" height="20" x="51" y="44" style="fill:#aea;stroke:black;"/>
   <text width="309" height="20" x="56" y="58" style="fill:black;" font-family="Arial" font-size="16px">DOID</text>
   <rect width="309" height="20" x="51" y="64" style="fill:none;stroke:black;"/>
   <text width="309" height="20" x="56" y="78" style="fill:black;" font-family="Arial" font-size="16px">nature_neuf_exist</text>
   <rect width="309" height="20" x="51" y="84" style="fill:none;stroke:black;"/>
   <text width="309" height="20" x="56" y="98" style="fill:black;" font-family="Arial" font-size="16px">nature_operation_surelev</text>
   <rect width="309" height="20" x="51" y="104" style="fill:none;stroke:black;"/>
   <text width="309" height="20" x="56" y="118" style="fill:black;" font-family="Arial" font-size="16px">nature_operation_surelev_sous_oeuvre</text>
   <rect width="309" height="20" x="51" y="124" style="fill:none;stroke:black;"/>
   <text width="309" height="20" x="56" y="138" style="fill:black;" font-family="Arial" font-size="16px">nature_operation_surelev_hors_fond</text>
   <rect width="309" height="20" x="51" y="144" style="fill:none;stroke:black;"/>
   <text width="309" height="20" x="56" y="158" style="fill:black;" font-family="Arial" font-size="16px">nature_operation_ext_horizont</text>
   <rect width="309" height="20" x="51" y="164" style="fill:none;stroke:black;"/>
   <text width="309" height="20" x="56" y="178" style="fill:black;" font-family="Arial" font-size="16px">nature_operation_ext_horizont_exist</text>
   <rect width="309" height="20" x="51" y="184" style="fill:none;stroke:black;"/>
   <text width="309" height="20" x="56" y="198" style="fill:black;" font-family="Arial" font-size="16px">nature_operation_renovation</text>
   <rect width="309" height="20" x="51" y="204" style="fill:none;stroke:black;"/>
   <text width="309" height="20" x="56" y="218" style="fill:black;" font-family="Arial" font-size="16px">nature_operation_renovation_fond</text>
   <rect width="309" height="20" x="51" y="224" style="fill:none;stroke:black;"/>
   <text width="309" height="20" x="56" y="238" style="fill:black;" font-family="Arial" font-size="16px">nature_operation_renovation_iso_therm</text>
   <rect width="309" height="20" x="51" y="244" style="fill:none;stroke:black;"/>
   <text width="309" height="20" x="56" y="258" style="fill:black;" font-family="Arial" font-size="16px">nature_operation_renovation_refect_toit</text>
   <rect width="309" height="20" x="51" y="264" style="fill:none;stroke:black;"/>
   <text width="309" height="20" x="56" y="278" style="fill:black;" font-family="Arial" font-size="16px">nature_operation_renovation_etancheite</text>
   <rect width="309" height="20" x="51" y="284" style="fill:none;stroke:black;"/>
   <text width="309" height="20" x="56" y="298" style="fill:black;" font-family="Arial" font-size="16px">nature_operation_renovation_ravalement</text>
   <rect width="309" height="20" x="51" y="304" style="fill:none;stroke:black;"/>
   <text width="309" height="20" x="56" y="318" style="fill:black;" font-family="Arial" font-size="16px">nature_operation_rehabilitation</text>
   <rect width="309" height="20" x="51" y="324" style="fill:none;stroke:black;"/>
   <text width="309" height="20" x="56" y="338" style="fill:black;" font-family="Arial" font-size="16px">nature_operation_rehabilitation_fond</text>
   <rect width="309" height="20" x="51" y="344" style="fill:none;stroke:black;"/>
   <text width="309" height="20" x="56" y="358" style="fill:black;" font-family="Arial" font-size="16px">nature_operation_rehabilitation_iso_therm</text>
   <rect width="309" height="20" x="51" y="364" style="fill:none;stroke:black;"/>
   <text width="309" height="20" x="56" y="378" style="fill:black;" font-family="Arial" font-size="16px">nature_operation_rehabilitation_refect_toit</text>
   <rect width="309" height="20" x="51" y="384" style="fill:none;stroke:black;"/>
   <text width="309" height="20" x="56" y="398" style="fill:black;" font-family="Arial" font-size="16px">nature_operation_rehabilitation_etancheite</text>
   <rect width="309" height="20" x="51" y="404" style="fill:none;stroke:black;"/>
   <text width="309" height="20" x="56" y="418" style="fill:black;" font-family="Arial" font-size="16px">nature_operation_rehabilitation_ravalement</text>
   <rect width="309" height="20" x="51" y="424" style="fill:none;stroke:black;"/>
   <text width="309" height="20" x="56" y="438" style="fill:black;" font-family="Arial" font-size="16px">operation_sinistre</text>
   <rect width="309" height="20" x="51" y="444" style="fill:none;stroke:black;"/>
   <text width="309" height="20" x="56" y="458" style="fill:black;" font-family="Arial" font-size="16px">operation_sinistre_descr</text>
   <rect width="309" height="20" x="51" y="464" style="fill:none;stroke:black;"/>
   <text width="309" height="20" x="56" y="478" style="fill:black;" font-family="Arial" font-size="16px">type_ouvrage_mais_indiv</text>
   <rect width="309" height="20" x="51" y="484" style="fill:none;stroke:black;"/>
   <text width="309" height="20" x="56" y="498" style="fill:black;" font-family="Arial" font-size="16px">type_ouvrage_ope_pavill</text>
   <rect width="309" height="20" x="51" y="504" style="fill:none;stroke:black;"/>
   <text width="309" height="20" x="56" y="518" style="fill:black;" font-family="Arial" font-size="16px">type_ouvrage_ope_pavill_nombre</text>
   <rect width="309" height="20" x="51" y="524" style="fill:none;stroke:black;"/>
   <text width="309" height="20" x="56" y="538" style="fill:black;" font-family="Arial" font-size="16px">type_ouvrage_coll_habit</text>
   <rect width="309" height="20" x="51" y="544" style="fill:none;stroke:black;"/>
   <text width="309" height="20" x="56" y="558" style="fill:black;" font-family="Arial" font-size="16px">type_ouvrage_coll_habit_nombre</text>
   <rect width="309" height="20" x="51" y="564" style="fill:none;stroke:black;"/>
   <text width="309" height="20" x="56" y="578" style="fill:black;" font-family="Arial" font-size="16px">type_ouvrage_bat_indus</text>
   <rect width="309" height="20" x="51" y="584" style="fill:none;stroke:black;"/>
   <text width="309" height="20" x="56" y="598" style="fill:black;" font-family="Arial" font-size="16px">type_ouvrage_centre_com</text>
   <rect width="309" height="20" x="51" y="604" style="fill:none;stroke:black;"/>
   <text width="309" height="20" x="56" y="618" style="fill:black;" font-family="Arial" font-size="16px">type_ouvrage_centre_com_surf</text>
   <rect width="309" height="20" x="51" y="624" style="fill:none;stroke:black;"/>
   <text width="309" height="20" x="56" y="638" style="fill:black;" font-family="Arial" font-size="16px">type_ouvrage_bat_bur</text>
   <rect width="309" height="20" x="51" y="644" style="fill:none;stroke:black;"/>
   <text width="309" height="20" x="56" y="658" style="fill:black;" font-family="Arial" font-size="16px">type_ouvrage_hopital</text>
   <rect width="309" height="20" x="51" y="664" style="fill:none;stroke:black;"/>
   <text width="309" height="20" x="56" y="678" style="fill:black;" font-family="Arial" font-size="16px">type_ouvrage_vrd_privatif</text>
   <rect width="309" height="20" x="51" y="684" style="fill:none;stroke:black;"/>
   <text width="309" height="20" x="56" y="698" style="fill:black;" font-family="Arial" font-size="16px">type_ouvrage_autre_const</text>
   <rect width="309" height="20" x="51" y="704" style="fill:none;stroke:black;"/>
   <text width="309" height="20" x="56" y="718" style="fill:black;" font-family="Arial" font-size="16px">type_ouvrage_autre_const_usage</text>
   <rect width="309" height="20" x="51" y="724" style="fill:none;stroke:black;"/>
   <text width="309" height="20" x="56" y="738" style="fill:black;" font-family="Arial" font-size="16px">construction_adresse_esc_res_bat</text>
   <rect width="309" height="20" x="51" y="744" style="fill:none;stroke:black;"/>
   <text width="309" height="20" x="56" y="758" style="fill:black;" font-family="Arial" font-size="16px">construction_adresse_num_nom_rue</text>
   <rect width="309" height="20" x="51" y="764" style="fill:none;stroke:black;"/>
   <text width="309" height="20" x="56" y="778" style="fill:black;" font-family="Arial" font-size="16px">construction_adresse_lieu_dit</text>
   <rect width="309" height="20" x="51" y="784" style="fill:none;stroke:black;"/>
   <text width="309" height="20" x="56" y="798" style="fill:black;" font-family="Arial" font-size="16px">construction_adresse_arrond</text>
   <rect width="309" height="20" x="51" y="804" style="fill:none;stroke:black;"/>
   <text width="309" height="20" x="56" y="818" style="fill:black;" font-family="Arial" font-size="16px">construction_adresse_code_postal</text>
   <rect width="309" height="20" x="51" y="824" style="fill:none;stroke:black;"/>
   <text width="309" height="20" x="56" y="838" style="fill:black;" font-family="Arial" font-size="16px">construction_adresse_commune</text>
   <rect width="309" height="20" x="51" y="844" style="fill:none;stroke:black;"/>
   <text width="309" height="20" x="56" y="858" style="fill:black;" font-family="Arial" font-size="16px">construction_date_debut</text>
   <rect width="309" height="20" x="51" y="864" style="fill:none;stroke:black;"/>
   <text width="309" height="20" x="56" y="878" style="fill:black;" font-family="Arial" font-size="16px">construction_date_debut_prevue</text>
   <rect width="309" height="20" x="51" y="884" style="fill:none;stroke:black;"/>
   <text width="309" height="20" x="56" y="898" style="fill:black;" font-family="Arial" font-size="16px">construction_date_reception</text>
   <rect width="309" height="20" x="51" y="904" style="fill:none;stroke:black;"/>
   <text width="309" height="20" x="56" y="918" style="fill:black;" font-family="Arial" font-size="16px">construction_cout_operation</text>
   <rect width="309" height="20" x="51" y="924" style="fill:none;stroke:black;"/>
   <text width="309" height="20" x="56" y="938" style="fill:black;" font-family="Arial" font-size="16px">construction_cout_honoraires_moe</text>
   <rect width="309" height="20" x="51" y="944" style="fill:none;stroke:black;"/>
   <text width="309" height="20" x="56" y="958" style="fill:black;" font-family="Arial" font-size="16px">cout_operation_tva</text>
   <rect width="184" height="20" x="1125" y="9" style="fill:#007;stroke:black;"/>
   <text width="184" height="20" x="1130" y="23" style="fill:#fff;" font-family="Arial" font-size="16px"> rcd</text>
   <rect width="184" height="20" x="1125" y="29" style="fill:#aea;stroke:black;"/>
   <text width="184" height="20" x="1130" y="43" style="fill:black;" font-family="Arial" font-size="16px">rcd_id</text>
   <rect width="184" height="20" x="1125" y="49" style="fill:none;stroke:black;"/>
   <text width="184" height="20" x="1130" y="63" style="fill:black;" font-family="Arial" font-size="16px">DOID</text>
   <rect width="184" height="20" x="1125" y="69" style="fill:none;stroke:black;"/>
   <text width="184" height="20" x="1130" y="83" style="fill:black;" font-family="Arial" font-size="16px">rcd_nature_id</text>
   <rect width="184" height="20" x="1125" y="89" style="fill:none;stroke:black;"/>
   <text width="184" height="20" x="1130" y="103" style="fill:black;" font-family="Arial" font-size="16px">rcd_nature_autre</text>
   <rect width="184" height="20" x="1125" y="109" style="fill:none;stroke:black;"/>
   <text width="184" height="20" x="1130" y="123" style="fill:black;" font-family="Arial" font-size="16px">rcd_nom</text>
   <rect width="184" height="20" x="1125" y="129" style="fill:none;stroke:black;"/>
   <text width="184" height="20" x="1130" y="143" style="fill:black;" font-family="Arial" font-size="16px">repertoire</text>
   <rect width="184" height="20" x="1125" y="149" style="fill:none;stroke:black;"/>
   <text width="184" height="20" x="1130" y="163" style="fill:black;" font-family="Arial" font-size="16px">fichier</text>
   <rect width="184" height="20" x="1125" y="169" style="fill:none;stroke:black;"/>
   <text width="184" height="20" x="1130" y="183" style="fill:black;" font-family="Arial" font-size="16px">fichier_remarque</text>
   <rect width="184" height="20" x="1125" y="189" style="fill:none;stroke:black;"/>
   <text width="184" height="20" x="1130" y="203" style="fill:black;" font-family="Arial" font-size="16px">annexe_fichier</text>
   <rect width="184" height="20" x="1125" y="209" style="fill:none;stroke:black;"/>
   <text width="184" height="20" x="1130" y="223" style="fill:black;" font-family="Arial" font-size="16px">annexe_fichier_remarque</text>
   <rect width="184" height="20" x="1125" y="229" style="fill:none;stroke:black;"/>
   <text width="184" height="20" x="1130" y="243" style="fill:black;" font-family="Arial" font-size="16px">montant</text>
   <rect width="184" height="20" x="1125" y="249" style="fill:none;stroke:black;"/>
   <text width="184" height="20" x="1130" y="263" style="fill:black;" font-family="Arial" font-size="16px">construction_date_debut</text>
   <rect width="184" height="20" x="1125" y="269" style="fill:none;stroke:black;"/>
   <text width="184" height="20" x="1130" y="283" style="fill:black;" font-family="Arial" font-size="16px">construction_date_fin</text>
   <rect width="119" height="20" x="1120" y="386" style="fill:#007;stroke:black;"/>
   <text width="119" height="20" x="1125" y="400" style="fill:#fff;" font-family="Arial" font-size="16px"> rcd_nature</text>
   <rect width="119" height="20" x="1120" y="406" style="fill:#aea;stroke:black;"/>
   <text width="119" height="20" x="1125" y="420" style="fill:black;" font-family="Arial" font-size="16px">rcd_nature_id</text>
   <rect width="119" height="20" x="1120" y="426" style="fill:none;stroke:black;"/>
   <text width="119" height="20" x="1125" y="440" style="fill:black;" font-family="Arial" font-size="16px">rcd_nature_nom</text>
   <rect width="308" height="20" x="988" y="662" style="fill:#007;stroke:black;"/>
   <text width="308" height="20" x="993" y="676" style="fill:#fff;" font-family="Arial" font-size="16px"> situation</text>
   <rect width="308" height="20" x="988" y="682" style="fill:#aea;stroke:black;"/>
   <text width="308" height="20" x="993" y="696" style="fill:black;" font-family="Arial" font-size="16px">DOID</text>
   <rect width="308" height="20" x="988" y="702" style="fill:none;stroke:black;"/>
   <text width="308" height="20" x="993" y="716" style="fill:black;" font-family="Arial" font-size="16px">situation_zone_inond</text>
   <rect width="308" height="20" x="988" y="722" style="fill:none;stroke:black;"/>
   <text width="308" height="20" x="993" y="736" style="fill:black;" font-family="Arial" font-size="16px">situation_sismique</text>
   <rect width="308" height="20" x="988" y="742" style="fill:none;stroke:black;"/>
   <text width="308" height="20" x="993" y="756" style="fill:black;" font-family="Arial" font-size="16px">situation_insectes</text>
   <rect width="308" height="20" x="988" y="762" style="fill:none;stroke:black;"/>
   <text width="308" height="20" x="993" y="776" style="fill:black;" font-family="Arial" font-size="16px">situation_proc_techniques</text>
   <rect width="308" height="20" x="988" y="782" style="fill:none;stroke:black;"/>
   <text width="308" height="20" x="993" y="796" style="fill:black;" font-family="Arial" font-size="16px">situation_parking</text>
   <rect width="308" height="20" x="988" y="802" style="fill:none;stroke:black;"/>
   <text width="308" height="20" x="993" y="816" style="fill:black;" font-family="Arial" font-size="16px">situation_do_10ans</text>
   <rect width="308" height="20" x="988" y="822" style="fill:none;stroke:black;"/>
   <text width="308" height="20" x="993" y="836" style="fill:black;" font-family="Arial" font-size="16px">situation_do_10ans_contrat_assureur</text>
   <rect width="308" height="20" x="988" y="842" style="fill:none;stroke:black;"/>
   <text width="308" height="20" x="993" y="856" style="fill:black;" font-family="Arial" font-size="16px">situation_do_10ans_contrat_numero</text>
   <rect width="308" height="20" x="988" y="862" style="fill:none;stroke:black;"/>
   <text width="308" height="20" x="993" y="876" style="fill:black;" font-family="Arial" font-size="16px">situation_mon_hist</text>
   <rect width="308" height="20" x="988" y="882" style="fill:none;stroke:black;"/>
   <text width="308" height="20" x="993" y="896" style="fill:black;" font-family="Arial" font-size="16px">situation_label_energie</text>
   <rect width="308" height="20" x="988" y="902" style="fill:none;stroke:black;"/>
   <text width="308" height="20" x="993" y="916" style="fill:black;" font-family="Arial" font-size="16px">situation_label_qualite</text>
   <rect width="308" height="20" x="988" y="922" style="fill:none;stroke:black;"/>
   <text width="308" height="20" x="993" y="936" style="fill:black;" font-family="Arial" font-size="16px">situation_etude_sol</text>
   <rect width="308" height="20" x="988" y="942" style="fill:none;stroke:black;"/>
   <text width="308" height="20" x="993" y="956" style="fill:black;" font-family="Arial" font-size="16px">sol_entreprise_id</text>
   <rect width="308" height="20" x="988" y="962" style="fill:none;stroke:black;"/>
   <text width="308" height="20" x="993" y="976" style="fill:black;" font-family="Arial" font-size="16px">situation_etude_sol_bureau_mission</text>
   <rect width="308" height="20" x="988" y="982" style="fill:none;stroke:black;"/>
   <text width="308" height="20" x="993" y="996" style="fill:black;" font-family="Arial" font-size="16px">situation_etude_sol_bureau_mission_champ</text>
   <rect width="308" height="20" x="988" y="1002" style="fill:none;stroke:black;"/>
   <text width="308" height="20" x="993" y="1016" style="fill:black;" font-family="Arial" font-size="16px">situation_etude_sol_parking</text>
   <rect width="308" height="20" x="988" y="1022" style="fill:none;stroke:black;"/>
   <text width="308" height="20" x="993" y="1036" style="fill:black;" font-family="Arial" font-size="16px">situation_garanties_complètes</text>
   <rect width="308" height="20" x="988" y="1042" style="fill:none;stroke:black;"/>
   <text width="308" height="20" x="993" y="1056" style="fill:black;" font-family="Arial" font-size="16px">situation_garanties_dommages_existants</text>
   <rect width="308" height="20" x="988" y="1062" style="fill:none;stroke:black;"/>
   <text width="308" height="20" x="993" y="1076" style="fill:black;" font-family="Arial" font-size="16px">situation_construction_bois</text>
   <rect width="308" height="20" x="988" y="1082" style="fill:none;stroke:black;"/>
   <text width="308" height="20" x="993" y="1096" style="fill:black;" font-family="Arial" font-size="16px">situation_pann_photo</text>
   <rect width="308" height="20" x="988" y="1102" style="fill:none;stroke:black;"/>
   <text width="308" height="20" x="993" y="1116" style="fill:black;" font-family="Arial" font-size="16px">situation_geothermie</text>
   <rect width="308" height="20" x="988" y="1122" style="fill:none;stroke:black;"/>
   <text width="308" height="20" x="993" y="1136" style="fill:black;" font-family="Arial" font-size="16px">situation_controle_tech</text>
   <rect width="228" height="20" x="420" y="24" style="fill:#007;stroke:black;"/>
   <text width="228" height="20" x="425" y="38" style="fill:#fff;" font-family="Arial" font-size="16px"> souscripteur</text>
   <rect width="228" height="20" x="420" y="44" style="fill:#aea;stroke:black;"/>
   <text width="228" height="20" x="425" y="58" style="fill:black;" font-family="Arial" font-size="16px">souscripteur_id</text>
   <rect width="228" height="20" x="420" y="64" style="fill:none;stroke:black;"/>
   <text width="228" height="20" x="425" y="78" style="fill:black;" font-family="Arial" font-size="16px">souscripteur_nom_raison</text>
   <rect width="228" height="20" x="420" y="84" style="fill:none;stroke:black;"/>
   <text width="228" height="20" x="425" y="98" style="fill:black;" font-family="Arial" font-size="16px">souscripteur_siret</text>
   <rect width="228" height="20" x="420" y="104" style="fill:none;stroke:black;"/>
   <text width="228" height="20" x="425" y="118" style="fill:black;" font-family="Arial" font-size="16px">souscripteur_adresse</text>
   <rect width="228" height="20" x="420" y="124" style="fill:none;stroke:black;"/>
   <text width="228" height="20" x="425" y="138" style="fill:black;" font-family="Arial" font-size="16px">souscripteur_code_postal</text>
   <rect width="228" height="20" x="420" y="144" style="fill:none;stroke:black;"/>
   <text width="228" height="20" x="425" y="158" style="fill:black;" font-family="Arial" font-size="16px">souscripteur_commune</text>
   <rect width="228" height="20" x="420" y="164" style="fill:none;stroke:black;"/>
   <text width="228" height="20" x="425" y="178" style="fill:black;" font-family="Arial" font-size="16px">souscripteur_profession</text>
   <rect width="228" height="20" x="420" y="184" style="fill:none;stroke:black;"/>
   <text width="228" height="20" x="425" y="198" style="fill:black;" font-family="Arial" font-size="16px">souscripteur_telephone</text>
   <rect width="228" height="20" x="420" y="204" style="fill:none;stroke:black;"/>
   <text width="228" height="20" x="425" y="218" style="fill:black;" font-family="Arial" font-size="16px">souscripteur_email</text>
   <rect width="228" height="20" x="420" y="224" style="fill:none;stroke:black;"/>
   <text width="228" height="20" x="425" y="238" style="fill:black;" font-family="Arial" font-size="16px">souscripteur_ancien_client_date</text>
   <rect width="228" height="20" x="420" y="244" style="fill:none;stroke:black;"/>
   <text width="228" height="20" x="425" y="258" style="fill:black;" font-family="Arial" font-size="16px">souscripteur_ancien_client_num</text>
   <rect width="297" height="20" x="419" y="657" style="fill:#007;stroke:black;"/>
   <text width="297" height="20" x="424" y="671" style="fill:#fff;" font-family="Arial" font-size="16px"> travaux_annexes</text>
   <rect width="297" height="20" x="419" y="677" style="fill:#aea;stroke:black;"/>
   <text width="297" height="20" x="424" y="691" style="fill:black;" font-family="Arial" font-size="16px">DOID</text>
   <rect width="297" height="20" x="419" y="697" style="fill:none;stroke:black;"/>
   <text width="297" height="20" x="424" y="711" style="fill:black;" font-family="Arial" font-size="16px">trav_annexes_constr_bois</text>
   <rect width="297" height="20" x="419" y="717" style="fill:none;stroke:black;"/>
   <text width="297" height="20" x="424" y="731" style="fill:black;" font-family="Arial" font-size="16px">trav_annexes_constr_bois_enveloppe</text>
   <rect width="297" height="20" x="419" y="737" style="fill:none;stroke:black;"/>
   <text width="297" height="20" x="424" y="751" style="fill:black;" font-family="Arial" font-size="16px">trav_annexes_constr_produits_ce</text>
   <rect width="297" height="20" x="419" y="757" style="fill:none;stroke:black;"/>
   <text width="297" height="20" x="424" y="771" style="fill:black;" font-family="Arial" font-size="16px">bois_entreprise_id</text>
   <rect width="297" height="20" x="419" y="777" style="fill:none;stroke:black;"/>
   <text width="297" height="20" x="424" y="791" style="fill:black;" font-family="Arial" font-size="16px">trav_annexes_pv_montage</text>
   <rect width="297" height="20" x="419" y="797" style="fill:none;stroke:black;"/>
   <text width="297" height="20" x="424" y="811" style="fill:black;" font-family="Arial" font-size="16px">trav_annexes_pv_proc_tech</text>
   <rect width="297" height="20" x="419" y="817" style="fill:none;stroke:black;"/>
   <text width="297" height="20" x="424" y="831" style="fill:black;" font-family="Arial" font-size="16px">trav_annexes_pv_etn</text>
   <rect width="297" height="20" x="419" y="837" style="fill:none;stroke:black;"/>
   <text width="297" height="20" x="424" y="851" style="fill:black;" font-family="Arial" font-size="16px">trav_annexes_pv_liste_c2p</text>
   <rect width="297" height="20" x="419" y="857" style="fill:none;stroke:black;"/>
   <text width="297" height="20" x="424" y="871" style="fill:black;" font-family="Arial" font-size="16px">trav_annexes_pv_surface</text>
   <rect width="297" height="20" x="419" y="877" style="fill:none;stroke:black;"/>
   <text width="297" height="20" x="424" y="891" style="fill:black;" font-family="Arial" font-size="16px">trav_annexes_pv_puissance</text>
   <rect width="297" height="20" x="419" y="897" style="fill:none;stroke:black;"/>
   <text width="297" height="20" x="424" y="911" style="fill:black;" font-family="Arial" font-size="16px">trav_annexes_pv_destination</text>
   <rect width="297" height="20" x="419" y="917" style="fill:none;stroke:black;"/>
   <text width="297" height="20" x="424" y="931" style="fill:black;" font-family="Arial" font-size="16px">pv_entreprise_id</text>
   <rect width="297" height="20" x="419" y="937" style="fill:none;stroke:black;"/>
   <text width="297" height="20" x="424" y="951" style="fill:black;" font-family="Arial" font-size="16px">geo_entreprise_id</text>
   <rect width="297" height="20" x="419" y="957" style="fill:none;stroke:black;"/>
   <text width="297" height="20" x="424" y="971" style="fill:black;" font-family="Arial" font-size="16px">ct_entreprise_id</text>
   <rect width="297" height="20" x="419" y="977" style="fill:none;stroke:black;"/>
   <text width="297" height="20" x="424" y="991" style="fill:black;" font-family="Arial" font-size="16px">trav_annexes_ct_type_controle</text>
   <rect width="297" height="20" x="419" y="997" style="fill:none;stroke:black;"/>
   <text width="297" height="20" x="424" y="1011" style="fill:black;" font-family="Arial" font-size="16px">trav_annexes_ct_type_controle_l_autres</text>
   <rect width="297" height="20" x="419" y="1017" style="fill:none;stroke:black;"/>
   <text width="297" height="20" x="424" y="1031" style="fill:black;" font-family="Arial" font-size="16px">trav_annexes_ct_type_controle_lth_autres</text>
   <rect width="297" height="20" x="419" y="1037" style="fill:none;stroke:black;"/>
   <text width="297" height="20" x="424" y="1051" style="fill:black;" font-family="Arial" font-size="16px">trav_annexes_ct_type_controle_le_autres</text>
   <rect width="297" height="20" x="419" y="1057" style="fill:none;stroke:black;"/>
   <text width="297" height="20" x="424" y="1071" style="fill:black;" font-family="Arial" font-size="16px">trav_annexes_ct_type_controle_leth_autres</text>
</svg>
